<svg width="292" height="258" viewBox="0 0 292 258" fill="none" xmlns="http://www.w3.org/2000/svg">
<path d="M124.88 74.5604C130.712 74.5604 135.44 69.8326 135.44 64.0004C135.44 58.1683 130.712 53.4404 124.88 53.4404C119.048 53.4404 114.32 58.1683 114.32 64.0004C114.32 69.8326 119.048 74.5604 124.88 74.5604Z" fill="#C9FA5A"/>
<path d="M136.4 90.8804C136.4 84.518 131.242 79.3604 124.88 79.3604C118.518 79.3604 113.36 84.518 113.36 90.8804V111.04C113.36 117.403 118.518 122.56 124.88 122.56C131.242 122.56 136.4 117.403 136.4 111.04V90.8804Z" fill="#B9B8E1"/>
<path d="M140.24 53.4404H144.08C153.246 53.4404 162.036 57.0816 168.518 63.5628C174.999 70.0441 178.64 78.8345 178.64 88.0004C178.64 97.1663 174.999 105.957 168.518 112.438C162.036 118.919 153.246 122.56 144.08 122.56H140.24V53.4404Z" fill="#C9FA5A"/>
<g clip-path="url(#clip0_14_467)">
<path d="M63.808 203.936C61.832 203.936 60.012 203.572 58.348 202.844C56.684 202.116 55.2453 201.093 54.032 199.776C52.8187 198.459 51.8827 196.933 51.224 195.2C50.5653 193.432 50.236 191.525 50.236 189.48V188.388C50.236 186.377 50.548 184.488 51.172 182.72C51.8307 180.952 52.732 179.409 53.876 178.092C55.0547 176.775 56.4587 175.752 58.088 175.024C59.752 174.261 61.5893 173.88 63.6 173.88C65.8187 173.88 67.76 174.365 69.424 175.336C71.1227 176.272 72.4747 177.693 73.48 179.6C74.4853 181.507 75.04 183.899 75.144 186.776L73.012 184.28V165.04H80.24V203H74.52V190.988H75.768C75.664 193.865 75.0747 196.275 74 198.216C72.9253 200.123 71.504 201.561 69.736 202.532C68.0027 203.468 66.0267 203.936 63.808 203.936ZM65.42 197.852C66.8413 197.852 68.1413 197.54 69.32 196.916C70.4987 196.257 71.4347 195.321 72.128 194.108C72.856 192.86 73.22 191.404 73.22 189.74V187.66C73.22 185.996 72.856 184.609 72.128 183.5C71.4 182.356 70.4467 181.489 69.268 180.9C68.0893 180.276 66.8067 179.964 65.42 179.964C63.86 179.964 62.4733 180.345 61.26 181.108C60.0813 181.836 59.1453 182.876 58.452 184.228C57.7933 185.58 57.464 187.157 57.464 188.96C57.464 190.763 57.8107 192.34 58.504 193.692C59.1973 195.009 60.1333 196.032 61.312 196.76C62.5253 197.488 63.8947 197.852 65.42 197.852ZM100.539 203.988C98.0434 203.988 95.842 203.589 93.9354 202.792C92.0287 201.995 90.4167 200.92 89.0994 199.568C87.782 198.181 86.7767 196.621 86.0834 194.888C85.4247 193.155 85.0954 191.352 85.0954 189.48V188.388C85.0954 186.447 85.442 184.609 86.1354 182.876C86.8634 181.108 87.886 179.548 89.2034 178.196C90.5554 176.809 92.1847 175.735 94.0914 174.972C95.998 174.175 98.1474 173.776 100.539 173.776C102.931 173.776 105.081 174.175 106.987 174.972C108.894 175.735 110.506 176.809 111.823 178.196C113.175 179.548 114.198 181.108 114.891 182.876C115.585 184.609 115.931 186.447 115.931 188.388V189.48C115.931 191.352 115.585 193.155 114.891 194.888C114.233 196.621 113.245 198.181 111.927 199.568C110.61 200.92 108.998 201.995 107.091 202.792C105.185 203.589 103.001 203.988 100.539 203.988ZM100.539 197.8C102.307 197.8 103.798 197.419 105.011 196.656C106.225 195.859 107.143 194.801 107.767 193.484C108.391 192.132 108.703 190.607 108.703 188.908C108.703 187.175 108.374 185.649 107.715 184.332C107.091 182.98 106.155 181.923 104.907 181.16C103.694 180.363 102.238 179.964 100.539 179.964C98.8407 179.964 97.3674 180.363 96.1194 181.16C94.906 181.923 93.97 182.98 93.3114 184.332C92.6527 185.649 92.3234 187.175 92.3234 188.908C92.3234 190.607 92.6354 192.132 93.2594 193.484C93.918 194.801 94.854 195.859 96.0674 196.656C97.2807 197.419 98.7714 197.8 100.539 197.8ZM120.76 203V174.764H126.48V186.88H125.96C125.96 184.037 126.324 181.663 127.052 179.756C127.78 177.815 128.855 176.359 130.276 175.388C131.732 174.383 133.535 173.88 135.684 173.88H135.996C138.18 173.88 139.983 174.383 141.404 175.388C142.86 176.359 143.935 177.815 144.628 179.756C145.356 181.663 145.72 184.037 145.72 186.88H143.9C143.9 184.037 144.264 181.663 144.992 179.756C145.755 177.815 146.847 176.359 148.268 175.388C149.724 174.383 151.527 173.88 153.676 173.88H153.988C156.172 173.88 157.992 174.383 159.448 175.388C160.904 176.359 161.996 177.815 162.724 179.756C163.487 181.663 163.868 184.037 163.868 186.88V203H156.64V186.204C156.64 184.436 156.19 183.032 155.288 181.992C154.387 180.917 153.104 180.38 151.44 180.38C149.776 180.38 148.442 180.935 147.436 182.044C146.431 183.119 145.928 184.575 145.928 186.412V203H138.7V186.204C138.7 184.436 138.25 183.032 137.348 181.992C136.447 180.917 135.164 180.38 133.5 180.38C131.836 180.38 130.502 180.935 129.496 182.044C128.491 183.119 127.988 184.575 127.988 186.412V203H120.76ZM171.444 203V174.764H178.672V203H171.444ZM167.492 180.172V174.764H178.672V180.172H167.492ZM184.671 214.128V207.94H189.975C190.98 207.94 191.812 207.801 192.471 207.524C193.164 207.281 193.736 206.865 194.187 206.276C194.637 205.721 194.984 204.941 195.227 203.936L202.819 174.764H209.735L201.363 205.496C200.808 207.611 200.028 209.292 199.023 210.54C198.017 211.823 196.717 212.741 195.123 213.296C193.563 213.851 191.621 214.128 189.299 214.128H184.671ZM193.459 202.376V196.656H199.491V202.376H193.459ZM191.015 202.376L181.863 174.764H189.143L197.827 202.376H191.015ZM226.164 203.988C223.668 203.988 221.467 203.589 219.56 202.792C217.654 201.995 216.042 200.92 214.724 199.568C213.407 198.181 212.402 196.621 211.708 194.888C211.05 193.155 210.72 191.352 210.72 189.48V188.388C210.72 186.447 211.067 184.609 211.76 182.876C212.488 181.108 213.511 179.548 214.828 178.196C216.18 176.809 217.81 175.735 219.716 174.972C221.623 174.175 223.772 173.776 226.164 173.776C228.556 173.776 230.706 174.175 232.612 174.972C234.519 175.735 236.131 176.809 237.448 178.196C238.8 179.548 239.823 181.108 240.516 182.876C241.21 184.609 241.556 186.447 241.556 188.388V189.48C241.556 191.352 241.21 193.155 240.516 194.888C239.858 196.621 238.87 198.181 237.552 199.568C236.235 200.92 234.623 201.995 232.716 202.792C230.81 203.589 228.626 203.988 226.164 203.988ZM226.164 197.8C227.932 197.8 229.423 197.419 230.636 196.656C231.85 195.859 232.768 194.801 233.392 193.484C234.016 192.132 234.328 190.607 234.328 188.908C234.328 187.175 233.999 185.649 233.34 184.332C232.716 182.98 231.78 181.923 230.532 181.16C229.319 180.363 227.863 179.964 226.164 179.964C224.466 179.964 222.992 180.363 221.744 181.16C220.531 181.923 219.595 182.98 218.936 184.332C218.278 185.649 217.948 187.175 217.948 188.908C217.948 190.607 218.26 192.132 218.884 193.484C219.543 194.801 220.479 195.859 221.692 196.656C222.906 197.419 224.396 197.8 226.164 197.8Z" fill="white"/>
<circle cx="174.1" cy="166.05" r="5.2" fill="#C9FA5A"/>
</g>
<defs>
<clipPath id="clip0_14_467">
<rect width="196" height="66" fill="white" transform="translate(48 152)"/>
</clipPath>
</defs>
</svg>
